# xmcd
#
# Track frame offsets:
#	150
#	22621
#	39755
#	48707
#	59708
#	82419
#	122744
#	138952
#	163181
#	183971
#	194609
#	215591
#	235008
#
# Disc length: 3351 seconds
#
# Revision: 0
# Processed by: cddbd v1.5.1PL2 Copyright (c) Steve Scherf et al.
# Submitted via: dBpowerAMP V4.0
#
DISCID=b80d150d
DTITLE=KOOL and THE GANG - Greatest Hits Live
DYEAR=2005
DGENRE=Blues
TTITLE0=Victory (live)
TTITLE1=Ladies Night (live)
TTITLE2=Fresh (live) 
TTITLE3=Take My Heart (You Can Have It, live)
TTITLE4=Hollywood Swinging (live)
TTITLE5=Too Hot (live)
TTITLE6=Joanna (live)
TTITLE7=Cherish (live) 
TTITLE8=Let's Go Dancin' (Ooh La La La, live)
TTITLE9=Get Down On It (live) 
TTITLE10=Celebration (live)
TTITLE11=Tonight (live)
TTITLE12=Emergency (live) 
EXTD=
EXTT0=
EXTT1=
EXTT2=
EXTT3=
EXTT4=
EXTT5=
EXTT6=
EXTT7=
EXTT8=
EXTT9=
EXTT10=
EXTT11=
EXTT12=
PLAYORDER=
